<mxfile host="app.diagrams.net" agent="Mozilla/5.0 (Windows NT 10.0; Win64; x64) AppleWebKit/537.36 (KHTML, like Gecko) Chrome/135.0.0.0 Safari/537.36" version="27.0.2">
  <diagram name="Page-1" id="Hdnx-xfnWDBLz2OUCofS">
    <mxGraphModel dx="1042" dy="535" grid="1" gridSize="9" guides="1" tooltips="1" connect="1" arrows="1" fold="1" page="1" pageScale="1" pageWidth="850" pageHeight="1100" math="0" shadow="0">
      <root>
        <mxCell id="0" />
        <mxCell id="1" parent="0" />
        <mxCell id="Q6qCPPFOiMgBiJxY75Ir-1" value="" style="rounded=1;whiteSpace=wrap;html=1;" vertex="1" parent="1">
          <mxGeometry x="40" y="280" width="120" height="60" as="geometry" />
        </mxCell>
        <mxCell id="Q6qCPPFOiMgBiJxY75Ir-2" value="" style="shape=hexagon;perimeter=hexagonPerimeter2;whiteSpace=wrap;html=1;fixedSize=1;" vertex="1" parent="1">
          <mxGeometry x="240" y="270" width="120" height="80" as="geometry" />
        </mxCell>
        <mxCell id="Q6qCPPFOiMgBiJxY75Ir-3" value="" style="whiteSpace=wrap;html=1;aspect=fixed;" vertex="1" parent="1">
          <mxGeometry x="670" y="252.5" width="115" height="115" as="geometry" />
        </mxCell>
        <mxCell id="Q6qCPPFOiMgBiJxY75Ir-9" value="" style="rhombus;whiteSpace=wrap;html=1;" vertex="1" parent="1">
          <mxGeometry x="330" y="500" width="200" height="110" as="geometry" />
        </mxCell>
        <mxCell id="Q6qCPPFOiMgBiJxY75Ir-11" value="Radiographers" style="shape=parallelogram;perimeter=parallelogramPerimeter;whiteSpace=wrap;html=1;fixedSize=1;fontStyle=1;fontSize=16;" vertex="1" parent="1">
          <mxGeometry x="430" y="265" width="150" height="90" as="geometry" />
        </mxCell>
        <mxCell id="Q6qCPPFOiMgBiJxY75Ir-15" value="Radiologists" style="text;html=1;align=center;verticalAlign=middle;whiteSpace=wrap;rounded=0;fontSize=17;fontStyle=1" vertex="1" parent="1">
          <mxGeometry x="697.5" y="282.5" width="60" height="30" as="geometry" />
        </mxCell>
        <mxCell id="Q6qCPPFOiMgBiJxY75Ir-16" value="Appointments" style="text;html=1;align=center;verticalAlign=middle;whiteSpace=wrap;rounded=0;fontStyle=1;fontSize=15;" vertex="1" parent="1">
          <mxGeometry x="270" y="282.5" width="60" height="30" as="geometry" />
        </mxCell>
        <mxCell id="Q6qCPPFOiMgBiJxY75Ir-17" value="Patients" style="text;html=1;align=center;verticalAlign=middle;whiteSpace=wrap;rounded=0;fontStyle=1;fontSize=20;" vertex="1" parent="1">
          <mxGeometry x="70" y="295" width="60" height="30" as="geometry" />
        </mxCell>
        <mxCell id="Q6qCPPFOiMgBiJxY75Ir-18" value="Examination Reports" style="text;html=1;align=center;verticalAlign=middle;whiteSpace=wrap;rounded=0;fontStyle=1;fontSize=20;" vertex="1" parent="1">
          <mxGeometry x="400" y="540" width="60" height="30" as="geometry" />
        </mxCell>
        <mxCell id="Q6qCPPFOiMgBiJxY75Ir-29" value="" style="edgeStyle=orthogonalEdgeStyle;rounded=0;orthogonalLoop=1;jettySize=auto;html=1;" edge="1" parent="1" source="Q6qCPPFOiMgBiJxY75Ir-21" target="Q6qCPPFOiMgBiJxY75Ir-3">
          <mxGeometry relative="1" as="geometry" />
        </mxCell>
        <mxCell id="Q6qCPPFOiMgBiJxY75Ir-21" value="" style="shape=hexagon;perimeter=hexagonPerimeter2;whiteSpace=wrap;html=1;fixedSize=1;" vertex="1" parent="1">
          <mxGeometry x="432" y="115" width="153" height="80" as="geometry" />
        </mxCell>
        <mxCell id="Q6qCPPFOiMgBiJxY75Ir-27" value="Imaging&lt;div&gt;studies/Test&lt;/div&gt;" style="text;html=1;align=center;verticalAlign=middle;whiteSpace=wrap;rounded=0;fontStyle=1;fontSize=17;" vertex="1" parent="1">
          <mxGeometry x="475" y="135" width="60" height="30" as="geometry" />
        </mxCell>
        <mxCell id="Q6qCPPFOiMgBiJxY75Ir-37" value="" style="endArrow=classic;startArrow=classic;html=1;rounded=0;entryX=0.625;entryY=1;entryDx=0;entryDy=0;" edge="1" parent="1" target="Q6qCPPFOiMgBiJxY75Ir-21">
          <mxGeometry width="50" height="50" relative="1" as="geometry">
            <mxPoint x="522" y="260" as="sourcePoint" />
            <mxPoint x="490" y="210" as="targetPoint" />
            <Array as="points" />
          </mxGeometry>
        </mxCell>
        <mxCell id="Q6qCPPFOiMgBiJxY75Ir-39" value="" style="endArrow=classic;startArrow=classic;html=1;rounded=0;exitX=1;exitY=0.5;exitDx=0;exitDy=0;entryX=0;entryY=0.5;entryDx=0;entryDy=0;" edge="1" parent="1" source="Q6qCPPFOiMgBiJxY75Ir-1" target="Q6qCPPFOiMgBiJxY75Ir-2">
          <mxGeometry width="50" height="50" relative="1" as="geometry">
            <mxPoint x="200" y="300" as="sourcePoint" />
            <mxPoint x="250" y="260" as="targetPoint" />
            <Array as="points">
              <mxPoint x="200" y="310" />
            </Array>
          </mxGeometry>
        </mxCell>
        <mxCell id="Q6qCPPFOiMgBiJxY75Ir-41" value="" style="endArrow=classic;startArrow=classic;html=1;rounded=0;exitX=1;exitY=0.5;exitDx=0;exitDy=0;" edge="1" parent="1" source="Q6qCPPFOiMgBiJxY75Ir-9">
          <mxGeometry width="50" height="50" relative="1" as="geometry">
            <mxPoint x="660" y="417.5" as="sourcePoint" />
            <mxPoint x="730" y="370" as="targetPoint" />
            <Array as="points">
              <mxPoint x="730" y="555" />
            </Array>
          </mxGeometry>
        </mxCell>
        <mxCell id="Q6qCPPFOiMgBiJxY75Ir-43" value="" style="endArrow=classic;startArrow=classic;html=1;rounded=0;exitX=1;exitY=0.5;exitDx=0;exitDy=0;entryX=0;entryY=0.5;entryDx=0;entryDy=0;" edge="1" parent="1" source="Q6qCPPFOiMgBiJxY75Ir-11" target="Q6qCPPFOiMgBiJxY75Ir-3">
          <mxGeometry width="50" height="50" relative="1" as="geometry">
            <mxPoint x="610" y="310" as="sourcePoint" />
            <mxPoint x="660" y="260" as="targetPoint" />
            <Array as="points" />
          </mxGeometry>
        </mxCell>
        <mxCell id="Q6qCPPFOiMgBiJxY75Ir-44" value="" style="endArrow=classic;startArrow=classic;html=1;rounded=0;exitX=1;exitY=0.5;exitDx=0;exitDy=0;" edge="1" parent="1">
          <mxGeometry width="50" height="50" relative="1" as="geometry">
            <mxPoint x="360" y="309.5" as="sourcePoint" />
            <mxPoint x="440" y="310" as="targetPoint" />
            <Array as="points" />
          </mxGeometry>
        </mxCell>
        <mxCell id="Q6qCPPFOiMgBiJxY75Ir-45" value="" style="endArrow=classic;startArrow=classic;html=1;rounded=0;exitX=0.5;exitY=0;exitDx=0;exitDy=0;entryX=0;entryY=0.5;entryDx=0;entryDy=0;" edge="1" parent="1" source="Q6qCPPFOiMgBiJxY75Ir-2" target="Q6qCPPFOiMgBiJxY75Ir-21">
          <mxGeometry width="50" height="50" relative="1" as="geometry">
            <mxPoint x="290" y="154.5" as="sourcePoint" />
            <mxPoint x="390" y="154.5" as="targetPoint" />
            <Array as="points">
              <mxPoint x="297" y="153" />
            </Array>
          </mxGeometry>
        </mxCell>
        <mxCell id="Q6qCPPFOiMgBiJxY75Ir-49" value="" style="whiteSpace=wrap;html=1;" vertex="1" parent="1">
          <mxGeometry x="100" y="10" width="630" height="60" as="geometry" />
        </mxCell>
        <mxCell id="Q6qCPPFOiMgBiJxY75Ir-51" value="Radiology Department Database Management System&lt;div&gt;Entity-Relationship Diagram (ERD)&lt;/div&gt;" style="text;html=1;align=center;verticalAlign=middle;whiteSpace=wrap;rounded=0;fontStyle=1;fontSize=20;" vertex="1" parent="1">
          <mxGeometry x="150" y="20" width="520" height="30" as="geometry" />
        </mxCell>
        <mxCell id="Q6qCPPFOiMgBiJxY75Ir-53" value="Conduct the examination" style="text;html=1;align=center;verticalAlign=middle;whiteSpace=wrap;rounded=0;" vertex="1" parent="1">
          <mxGeometry x="460" y="320" width="100" height="30" as="geometry" />
        </mxCell>
        <mxCell id="Q6qCPPFOiMgBiJxY75Ir-54" value="report the diagnostic images" style="text;html=1;align=center;verticalAlign=middle;whiteSpace=wrap;rounded=0;" vertex="1" parent="1">
          <mxGeometry x="690" y="320" width="60" height="30" as="geometry" />
        </mxCell>
        <mxCell id="Q6qCPPFOiMgBiJxY75Ir-55" value="Patients schedules" style="text;html=1;align=center;verticalAlign=middle;whiteSpace=wrap;rounded=0;" vertex="1" parent="1">
          <mxGeometry x="270" y="310" width="60" height="30" as="geometry" />
        </mxCell>
        <mxCell id="Q6qCPPFOiMgBiJxY75Ir-57" value="" style="endArrow=classic;startArrow=classic;html=1;rounded=0;exitX=0;exitY=0.5;exitDx=0;exitDy=0;" edge="1" parent="1" source="Q6qCPPFOiMgBiJxY75Ir-9">
          <mxGeometry width="50" height="50" relative="1" as="geometry">
            <mxPoint x="252" y="400" as="sourcePoint" />
            <mxPoint x="288" y="351" as="targetPoint" />
            <Array as="points">
              <mxPoint x="288" y="555" />
            </Array>
          </mxGeometry>
        </mxCell>
      </root>
    </mxGraphModel>
  </diagram>
</mxfile>
